<svg xmlns="http://www.w3.org/2000/svg" xml:space="preserve" width="297mm" height="210mm"  version="1.1"
 viewBox="0 0 29700 21000"
 xmlns:xlink="http://www.w3.org/1999/xlink"
 xmlns:xodm="http://www.corel.com/coreldraw/odm/2003">

 <g xmlns="http://www.w3.org/2000/svg">
    <g>
     <path fill="white" d="M12743.5 7108.54c0,-51.67 9.59,-100.07 28.76,-145.44 19.18,-45.59 46.07,-85.11 80.44,-119.02 34.61,-33.66 75.53,-60.56 122.99,-80.2 47.47,-19.4 99.38,-29.23 155.5,-29.23 56.59,0 108.73,9.83 156.43,29.23 47.94,19.64 88.86,46.54 123.46,80.2 34.38,33.91 61.5,73.43 80.91,119.02 19.41,45.37 28.99,93.77 28.99,145.44 0,11.46 -0.46,20.58 -1.4,27.36 -0.93,7.02 -1.87,13.56 -2.81,19.88l-609.59 0c5.38,28.76 15.44,54.95 29.7,78.1 14.5,23.38 31.8,43.02 52.14,59.39 20.35,16.13 42.79,28.76 67.58,37.64 24.55,8.89 50.04,13.33 75.99,13.33 41.16,0 77.4,-9.12 108.97,-27.35 31.56,-18.24 55.42,-42.33 71.78,-72.02l180.28 0c-11.45,31.09 -28.06,60.79 -50.03,89.32 -21.98,28.53 -48.41,53.78 -79.04,75.76 -30.87,21.98 -65.94,39.52 -104.99,52.38 -39.05,13.09 -81.84,19.64 -128.37,19.64 -56.12,0 -108.03,-9.82 -155.5,-29.46 -47.46,-19.65 -88.38,-46.3 -122.99,-80.21 -34.37,-33.67 -61.26,-73.18 -80.44,-118.55 -19.17,-45.13 -28.76,-93.53 -28.76,-145.21zm6229.2 -1.16c0,51.67 -8.88,100.31 -26.65,145.67 -17.77,45.6 -43.03,85.11 -75.76,119.02 -32.74,33.9 -72.02,60.56 -117.86,80.2 -45.82,19.64 -97.03,29.46 -153.85,29.46 -50.98,0 -96.34,-8.18 -135.62,-24.55 -39.29,-16.6 -72.96,-37.88 -101.25,-63.83l0 308.42 -166.49 0 0 -946.07 135.62 0 12.86 82.07c14.27,-13.79 30.17,-26.89 48.17,-39.51 17.77,-12.63 37.18,-23.62 58.46,-33.44 21.28,-9.59 44.19,-17.07 68.51,-22.68 24.55,-5.38 50.04,-8.19 77.16,-8.19 56.13,0 107.33,9.82 153.63,29.23 46.53,19.41 86.05,45.83 119.02,79.73 32.73,33.91 58.46,73.43 76.69,119.03 18.24,45.36 27.36,93.99 27.36,145.44zm-166.48 1.16c0,-33.9 -5.85,-64.77 -17.77,-93.06 -11.93,-28.29 -28.06,-52.61 -48.64,-72.95 -20.58,-20.35 -44.66,-36.01 -72.02,-47.24 -27.36,-11.22 -56.59,-16.83 -87.68,-16.83 -31.57,0 -61.03,5.61 -88.39,16.83 -27.36,11.23 -51.21,26.89 -71.55,47.24 -20.35,20.34 -36.48,44.42 -48.17,72.48 -11.93,28.06 -18.01,59.4 -18.01,93.53 0,33.21 6.08,64.07 18.01,92.13 11.69,28.06 28.06,52.15 48.63,72.25 20.58,20.12 44.43,35.78 71.79,47.24 27.36,11.46 56.82,17.07 88.39,17.07 31.56,0 61.03,-5.61 88.38,-16.84 27.36,-11.22 51.21,-26.89 71.55,-47.23 20.35,-20.34 36.48,-44.43 47.94,-72.25 11.69,-27.83 17.54,-58.69 17.54,-92.37zm-1486.17 -0.46c0,-51.45 9.59,-100.08 28.76,-145.44 19.18,-45.6 46.07,-85.12 80.44,-119.02 34.61,-33.91 75.52,-60.57 122.99,-80.21 47.47,-19.64 99.38,-29.46 155.5,-29.46 56.58,0 108.73,9.82 156.66,29.46 47.7,19.64 88.63,46.3 123.23,80.21 34.37,33.9 61.5,73.42 80.9,119.02 19.41,45.36 29,93.99 29,145.44 0,52.14 -9.59,100.78 -28.76,146.14 -19.18,45.13 -46.06,84.64 -80.91,118.55 -34.6,33.9 -75.76,60.33 -123.46,79.74 -47.93,19.4 -100.31,29.22 -157.36,29.22 -56.12,0 -107.8,-9.82 -155.03,-29.22 -47.47,-19.41 -88.15,-45.84 -122.29,-79.74 -34.37,-33.91 -61.27,-73.42 -80.68,-119.02 -19.4,-45.36 -28.99,-94 -28.99,-145.67zm166.49 -0.94c0,33.91 5.84,64.77 17.53,92.83 11.46,28.06 27.36,52.14 47.47,72.49 20.11,20.34 43.73,36.24 70.62,47.7 26.89,11.46 55.88,17.07 86.98,17.07 31.1,0 60.09,-5.61 86.99,-16.84 26.89,-11.22 50.5,-26.89 70.61,-47.23 20.11,-20.34 36.01,-44.66 47.47,-72.96 11.69,-28.29 17.54,-59.15 17.54,-93.06 0,-33.2 -5.85,-64.07 -17.54,-92.13 -11.46,-28.06 -27.36,-52.14 -47.47,-72.25 -20.11,-20.11 -43.72,-35.78 -70.85,-47.23 -27.36,-11.46 -56.12,-17.07 -86.75,-17.07 -31.1,0 -60.09,5.61 -86.98,16.83 -26.89,11.23 -50.51,26.89 -70.62,47.24 -20.11,20.34 -36.01,44.42 -47.47,72.48 -11.69,28.06 -17.53,58.93 -17.53,92.13zm-269.42 353.55l-167.89 0 0 -379.97c0,-38.35 -3.98,-70.38 -12.39,-96.34 -8.19,-25.72 -20.11,-46.53 -35.78,-62.43 -15.9,-15.67 -35.07,-26.89 -57.52,-33.44 -22.68,-6.78 -48.64,-10.05 -77.87,-10.05 -26.89,0 -52.14,4.68 -75.76,14.26 -23.38,9.59 -43.72,23.38 -60.79,41.15 -17.3,17.78 -30.63,39.29 -40.45,64.07 -9.83,25.02 -14.74,52.38 -14.74,82.55l0 380.2 -166.48 0 0 -965.24 165.78 0 -0.7 324.08c27.36,-24.08 60.56,-44.43 99.38,-61.03 38.81,-16.36 80.67,-24.55 126.03,-24.55 54.72,0 102.19,7.49 142.4,22.68 40.22,14.97 73.43,37.18 99.62,66.41 26.42,29.23 45.82,65.24 58.22,108.03 12.63,42.79 18.94,91.66 18.94,147.08l0 382.54zm-1271.61 -212.32c0.47,13.1 4.44,25.72 11.93,37.65 7.48,11.93 17.77,22.22 30.4,30.87 12.86,8.65 27.59,15.43 44.66,20.57 16.83,4.91 35.07,7.48 54.71,7.48 53.08,0 92.13,-7.95 117.15,-23.61 25.02,-15.9 37.65,-37.18 37.65,-64.07 0,-15.2 -4.45,-27.59 -13.57,-37.65 -9.11,-10.05 -22.44,-18.47 -39.75,-25.49 -17.53,-6.78 -38.58,-12.86 -63.83,-18 -25.02,-5.38 -53.55,-10.99 -85.58,-16.83 -15.9,-2.34 -32.74,-5.38 -50.27,-8.89 -17.78,-3.74 -35.08,-8.65 -52.38,-14.73 -17.54,-6.32 -34.14,-14.03 -49.81,-23.62 -15.66,-9.58 -29.69,-21.51 -41.85,-35.31 -11.93,-14.03 -21.75,-30.63 -29,-50.03 -7.25,-19.41 -10.99,-42.33 -10.99,-68.75 0,-32.97 5.85,-62.9 17.77,-90.26 11.93,-27.12 30.4,-50.5 55.42,-70.38 25.25,-19.88 57.29,-35.31 96.1,-46.3 38.82,-10.99 85.12,-16.37 138.9,-16.37 42.55,0 80.9,5.38 114.81,16.37 34.14,10.99 62.9,26.19 86.75,45.83 23.62,19.64 41.85,43.26 54.71,70.62 12.86,27.36 19.18,57.28 19.18,89.79l-166.49 -0.7c-1.87,-24.79 -13.32,-45.13 -34.84,-61.03 -21.51,-15.9 -50.04,-24.09 -85.58,-24.09 -23.38,0 -43.26,2.58 -59.63,7.25 -16.6,4.91 -29.93,11.23 -40.45,18.94 -10.52,7.72 -18.24,16.84 -23.38,27.12 -4.91,10.06 -7.48,20.82 -7.48,31.81 0,12.62 3.5,23.38 10.29,32.03 6.78,8.89 17.07,16.13 30.86,21.98 13.56,6.08 31.1,10.99 51.91,15.2 21.04,3.98 45.83,7.72 74.13,10.76 34.13,5.61 68.04,12.39 101.24,20.34 33.44,7.95 63.13,19.41 89.09,34.61 26.19,14.96 47,34.83 63.13,59.62 15.9,24.55 23.86,56.35 23.86,95.17 0,39.75 -7.96,74.36 -23.86,103.82 -16.13,29.46 -38.58,54.01 -67.81,73.65 -29.23,19.65 -64.53,34.38 -105.45,44.2 -41.16,9.82 -86.99,14.73 -137.03,14.73 -50.27,0 -94.23,-7.02 -131.64,-21.04 -37.41,-13.8 -68.51,-32.04 -93.53,-54.49 -24.79,-22.21 -43.5,-47.46 -55.89,-75.29 -12.16,-27.82 -18.47,-55.89 -18.47,-84.18l163.91 0.7zm-180.56 -491.97l-412.94 946.77 -179.58 0 126.03 -271.24 -292.52 -675.53 184.26 0 187.76 448.01 8.19 35.55 200.15 -482.86 178.65 -0.7zm-1463.62 599.53l380.91 -456.43 -361.03 0 0 -143.1 596.73 0 0 106.62 -378.1 453.16 395.17 0 0 144.51 -633.68 0 0 -104.76zm-712.93 0l380.9 -456.43 -361.03 0 0 -143.1 596.73 0 0 106.62 -378.1 453.16 395.17 0 0 144.51 -633.67 0 0 -104.76zm-455.81 -487.76c-28.29,0 -54.48,4.21 -78.56,12.63 -23.85,8.42 -45.36,20.1 -64.31,35.3 -18.94,14.97 -35.07,32.97 -48.16,53.78 -13.33,20.81 -23.15,43.5 -29.47,68.05l433.52 0c-6.31,-24.55 -15.9,-47.24 -28.76,-68.05 -12.86,-20.81 -28.29,-38.81 -46.53,-53.78 -18.24,-15.2 -39.05,-26.88 -61.97,-35.3 -23.15,-8.42 -48.4,-12.63 -75.76,-12.63z"/>
     <path fill="#A6C114" fill-rule="nonzero" d="M17620.32 7015.04c-11.29,11.42 -20.22,24.94 -26.65,40.69 -6.56,15.75 -9.84,33.08 -9.84,51.72 0,19.03 3.28,36.36 9.84,52.11 6.43,15.75 15.36,29.27 26.65,40.69 11.29,11.42 24.54,20.35 39.64,26.78 15.09,6.43 31.37,9.58 48.83,9.58 17.46,0 33.73,-3.15 48.83,-9.45 15.09,-6.3 28.35,-15.09 39.64,-26.51 11.29,-11.42 20.21,-25.08 26.65,-40.96 6.56,-15.88 9.84,-33.21 9.84,-52.24 0,-18.64 -3.28,-35.97 -9.84,-51.72 -6.44,-15.75 -15.36,-29.27 -26.65,-40.56 -11.29,-11.29 -24.55,-20.08 -39.77,-26.51 -15.36,-6.44 -31.5,-9.59 -48.7,-9.59 -17.46,0 -33.74,3.15 -48.83,9.45 -15.1,6.31 -28.35,15.1 -39.64,26.52z"/>
    </g>
    <path fill="#A6C114" fill-rule="nonzero" d="M11347.79 7189.36c-0.45,-2.05 -0.86,-4.11 -1.28,-6.16 -52.34,-257.23 143.36,-506.47 414.24,-506.47 161.16,0 301.25,90.21 372.52,222.89 -364.3,376.03 -906.13,485.28 -1407.04,330.51 120.27,77.48 254.23,135.57 397.44,169.84 112.79,238.58 355.66,403.63 637.08,403.63 364.34,0.01 664.07,-276.65 700.57,-631.35 -173.36,383.85 -654.81,516.54 -959.6,260.96 376.81,-21.87 718.09,-206.28 944.42,-496.72 -73.84,-311.98 -354.02,-541.48 -685.39,-541.48 -428.61,0 -752.69,377.74 -698.5,794.87 0.43,3.29 0.85,6.58 1.33,9.88 94.53,3.74 189.13,-1.68 284.21,-10.4z"/>
   </g>
</svg> 



